<svg class="img-fluid" id="outputsvg" xmlns="http://www.w3.org/2000/svg" style="transform: none; transform-origin: 50% 50%; cursor: move; max-height: none;" width="442" height="380" viewBox="0 0 4420 3800"><g id="l41jZi1UUk61zfGIRDgaVpZ" fill="rgb(232,99,100)" style="transform: none;"><g><path id="p82Wthpv6" d="M1815 3684 c-714 -79 -1179 -523 -1297 -1239 -21 -133 -16 -456 10 -600 57 -317 136 -488 297 -650 167 -167 368 -260 650 -300 55 -8 104 -15 108 -15 5 0 5 -4 2 -10 -10 -17 1 -12 56 26 30 20 55 31 57 25 8 -25 102 -8 102 19 0 23 28 30 133 30 l87 0 0 36 c0 20 -11 54 -25 78 -26 45 -65 149 -65 174 0 12 3 12 15 2 8 -7 15 -19 15 -26 0 -8 4 -14 8 -14 10 0 172 -186 172 -197 0 -15 54 -33 96 -33 39 0 50 7 146 93 143 129 237 207 248 207 16 0 30 -72 20 -110 -18 -72 -30 -102 -60 -152 -19 -30 -34 -70 -37 -99 l-6 -49 43 0 c30 0 60 -10 98 -31 39 -22 58 -27 65 -20 6 6 34 11 62 11 126 0 333 49 462 110 321 150 541 445 624 835 111 526 -21 995 -380 1356 -282 283 -654 449 -1171 524 -103 15 -456 27 -535 19z"></path></g></g><g id="l7G9xKNJWEm2vPEopz5BG1j" fill="rgb(99,140,82)" style="transform: none;"><g><path id="p17PmEP11P" d="M1890 1312 c0 -65 24 -154 63 -232 17 -36 33 -68 35 -71 1 -3 -50 -9 -115 -11 -132 -6 -200 -26 -274 -80 -37 -27 -41 -32 -25 -38 17 -6 15 -9 -15 -33 l-34 -27 320 1 c176 0 327 -2 337 -6 58 -23 4 -250 -106 -443 -40 -72 -42 -81 -21 -121 17 -34 33 -41 88 -41 131 0 189 127 200 433 2 70 6 130 9 133 3 2 57 -13 121 -35 63 -22 159 -49 213 -61 118 -25 254 -38 254 -23 0 16 -74 86 -136 129 -47 33 -53 40 -39 50 13 10 0 19 -80 60 -52 26 -95 49 -95 51 0 1 13 24 29 50 45 73 65 140 66 218 0 85 -22 130 -58 119 -27 -8 -89 -55 -181 -138 -214 -191 -218 -194 -246 -161 -7 8 -16 12 -21 9 -5 -3 -8 -2 -7 3 3 8 -83 112 -149 181 -18 19 -33 37 -33 40 0 9 -83 92 -92 92 -4 0 -8 -22 -8 -48z"></path></g></g><g id="l7LPNw55lD3TXEp4Jd4mrBF" fill="rgb(222,90,91)" style="transform: none;"><g><path id="paZhW2DII" d="M2529 1268 c-41 -34 -120 -104 -177 -155 -57 -51 -111 -93 -121 -93 -17 0 -82 63 -184 180 -30 34 -40 42 -25 20 48 -74 191 -220 214 -220 24 0 125 69 224 154 14 12 80 83 139 149 42 47 7 29 -70 -35z"></path><path id="p19aDHLUGr" d="M1965 1287 c10 -15 20 -25 23 -22 3 3 -5 16 -17 28 l-23 22 17 -28z"></path><path id="pne9lcE5G" d="M1875 999 c-134 -8 -203 -28 -276 -81 -62 -45 -31 -47 65 -3 100 46 201 68 282 63 35 -2 64 -1 64 2 -1 21 -25 24 -135 19z"></path><path id="puELzk4wA" d="M2572 938 c-14 -14 174 -111 194 -100 11 6 -11 22 -84 60 -67 34 -103 47 -110 40z"></path></g></g></svg>